<?xml version="1.0" encoding="UTF-8"?>
<svg width="115px" height="164px" viewBox="0 0 115 164" version="1.1" xmlns="http://www.w3.org/2000/svg" xmlns:xlink="http://www.w3.org/1999/xlink">
    <!-- Generator: Sketch 49.3 (51167) - http://www.bohemiancoding.com/sketch -->
    <title>favicon</title>
    <desc>Created with Sketch.</desc>
    <defs></defs>
    <g id="favicon" stroke="none" stroke-width="1" fill="none" fill-rule="evenodd">
        <path d="M65.8472,4.3841 C63.6452,4.5911 60.2372,4.9371 56.2222,5.8731 C66.5322,2.6831 82.2142,-0.5469 89.5532,6.1691 C82.9772,4.1921 74.9012,3.5301 65.8472,4.3841 Z M28.7622,27.9551 C32.6742,24.1731 42.1392,18.5881 55.3812,20.4571 C68.6232,22.3261 74.5732,34.4201 74.5732,34.4201 C64.2962,18.7801 42.2372,17.9811 28.7622,27.9551 Z M29.5952,29.0891 C32.7542,28.0761 40.2092,26.9711 50.1252,29.0851 C60.0402,31.1991 63.8982,36.4011 63.8982,36.4011 C58.3802,30.9051 41.6472,27.0101 29.5952,29.0891 Z M33.7832,60.1131 C22.8612,56.3831 23.3192,46.5591 23.3192,46.5591 C23.3192,46.5591 23.1042,55.2141 34.9102,59.1711 C49.9452,64.2101 56.2332,70.2731 56.2332,70.2731 C56.2332,70.2731 49.3792,65.4401 33.7832,60.1131 Z M21.4122,62.5231 C17.1832,58.2101 15.5952,52.1761 18.5692,50.7981 C14.1372,53.8831 27.0492,71.7721 46.9952,78.4961 C49.1262,79.0951 51.0982,79.5631 52.9392,80.1101 C50.8972,79.6931 48.9152,79.1431 46.9952,78.4961 C40.3492,76.6271 32.1382,73.4651 21.4122,62.5231 Z M37.2752,83.9941 C37.3102,83.9801 37.3442,83.9651 37.3812,83.9491 C37.4262,83.9691 37.4712,83.9911 37.5152,84.0111 C37.4452,84.0051 37.3652,84.0001 37.2752,83.9941 Z M14.2942,68.8691 C19.7732,74.2741 26.7482,78.7071 33.8722,82.2691 C19.7892,80.5511 15.7022,74.3471 14.2942,68.8691 Z M6.0212,58.4051 C7.6652,61.1561 9.7662,64.0021 12.4182,66.9271 C12.7232,67.2641 13.0452,67.5921 13.3632,67.9231 C14.0472,73.8681 16.9732,77.5831 20.5512,79.8941 C7.2822,74.6091 6.6482,64.4491 6.0212,58.4051 Z M4.4692,49.1031 C3.3292,44.7031 5.0492,38.6211 5.0492,38.6211 C2.7602,49.0901 9.6962,57.2601 9.6962,57.2601 C9.6962,57.2601 5.6082,53.5031 4.4692,49.1031 Z M13.8412,55.3821 C13.8412,55.3821 8.3982,53.1611 8.3982,41.8541 C8.3982,30.5481 15.6802,24.2971 15.6802,24.2971 C3.0742,43.4041 13.8412,55.3821 13.8412,55.3821 Z M27.6502,17.7051 C24.8422,16.1151 17.7072,12.1091 11.2572,18.4791 C10.5062,19.2211 5.5912,23.8551 2.8272,31.2321 C7.1432,11.9331 23.8042,10.3331 27.6502,17.7051 Z M112.8862,70.4941 L106.2132,60.0661 L106.1302,58.4881 C106.1302,58.4881 109.6122,59.1361 110.4932,56.8271 C108.6062,57.5171 107.4412,57.4191 106.3402,56.6891 C105.6402,56.2251 106.8902,54.4391 106.8902,54.4391 C106.8902,54.4391 109.0542,50.1061 106.8812,40.1941 C106.0942,36.6031 106.3402,35.3701 107.1612,29.8091 C108.7102,19.3151 103.1492,11.5401 93.0422,7.4001 C93.0522,7.3241 93.0672,7.2471 93.0672,7.1711 C82.1482,-7.6109 55.9572,4.4211 48.4462,8.3031 C43.4062,10.3191 38.0522,13.4051 33.1902,18.1921 C32.4442,18.9261 31.7242,19.1801 31.0712,19.1901 C28.0132,7.4921 2.4082,9.5611 1.3962,36.4211 C0.3062,42.4941 1.0202,49.8381 5.8092,58.0361 C4.2402,79.8031 21.9712,83.7841 31.0832,84.3931 C27.9062,85.0421 24.4782,86.5721 22.8922,90.0471 C17.8502,101.0951 34.0122,103.1921 31.2782,93.1291 C33.4162,102.6081 18.6962,100.2451 24.3842,90.0471 C26.3992,86.4351 33.8762,85.1761 42.0062,86.2891 C36.7172,99.7661 26.6972,118.8661 20.0412,132.5501 C17.6222,137.5231 21.2392,136.3041 23.8142,134.7651 C40.1162,125.0201 50.2222,137.5691 59.4812,145.4161 C72.0422,156.0631 77.4112,157.9771 87.3552,162.0801 C94.2672,164.9341 94.5832,162.6211 91.0692,159.2411 C69.8312,138.8171 70.0072,111.1681 75.8732,99.4611 C76.4342,98.3411 78.5472,98.8251 78.7642,98.5971 C84.5142,100.6481 92.0202,102.6691 99.2672,102.6691 C100.2362,102.6691 103.7192,101.8011 104.0192,98.3721 C104.1812,96.5241 104.2842,95.9791 104.2842,93.6171 C104.2842,91.2501 105.1052,91.2501 105.1052,91.2501 C105.1052,91.2501 108.5452,92.2151 107.1402,88.5651 C106.8602,87.8371 106.0432,87.3401 106.1282,87.0061 C106.2132,86.6731 109.3582,85.7751 110.0452,83.9651 C110.3172,83.2461 109.6122,82.2791 109.6122,82.2791 C109.6122,82.2791 107.1612,78.6661 108.0012,77.7141 C109.4632,76.0571 111.6212,76.3521 113.9082,73.8021 C114.8942,72.3171 112.8862,70.4941 112.8862,70.4941 Z" id="Head" fill="#58A6F5"></path>
    </g>
</svg>