<?xml version="1.0" encoding="UTF-8"?>
<svg width="2500px" height="4747px" viewBox="0 0 2500 4747" version="1.1" xmlns="http://www.w3.org/2000/svg" xmlns:xlink="http://www.w3.org/1999/xlink">
    <title>girl</title>
    <defs></defs>
    <g id="girl" stroke="none" stroke-width="1" fill="none" fill-rule="evenodd" opacity="0.6">
        <path d="M2072.8,310.68 C2428.3,333.26 2618.54,554.43 2668.5,621.69 L2668.5,1253.43 C2661.83,1233.31 2585,1025 2251,985 C2000.9,955.07 1362.39,1030.94 1407.75,1906.49 C1422.96,1396.11 1767.96,1139.95 2106.96,1122.95 C2332.08,1111.66 2478.96,1190.95 2565.96,1293.95 C2770.45,1536.05 2538.96,1704.95 2538.96,1704.95 C2538.96,1704.95 2655.96,1563.95 2451.96,1398.95 C2308.23,1282.7 1727.49,1209.72 1699.74,1657.16 C1853.96,1244.95 2145.39,1389.47 2221.96,1452.95 C2281.35,1502.23 2369.96,1659.95 2237.35,1836.95 C2211.79,1864.52 2054.08,1996.9 1978.21,1846.13 C2100.13,1973.88 2210.54,1717.43 2025.44,1659.88 C1798.95,1589.46 1780.39,1972.27 1780.39,2077.82 C1780.39,2207.91 1685.86,2268.02 1685.86,2268.02 L1685.63,2269.09 C1763.62,2322.97 1802.85,2403.02 1787.93,2503.68 C1777.94,2571.06 1774.94,2586 1784.52,2629.52 C1810.95,2749.63 1784.64,2802.13 1784.64,2802.13 C1784.64,2802.13 1769.43,2823.77 1777.94,2829.39 C1791.34,2838.23 1805.46,2839.42 1828.46,2831.06 C1817.75,2859.04 1775.38,2851.19 1775.38,2851.19 L1776.38,2870.3 L1857.56,2996.67 C1857.56,2996.67 1882,3018.76 1870,3036.76 C1842.14,3067.66 1815.93,3064.08 1798.14,3084.16 C1787.92,3095.69 1817.75,3139.47 1817.75,3139.47 C1817.75,3139.47 1826.33,3151.19 1823.01,3159.91 C1814.66,3181.83 1776.39,3192.72 1775.36,3196.76 C1774.33,3200.8 1784.27,3206.82 1787.68,3215.64 C1804.77,3259.87 1762.93,3248.18 1762.93,3248.18 C1762.93,3248.18 1752.93,3248.24 1752.93,3276.86 C1752.93,3305.48 1751.7,3312.09 1749.7,3334.48 C1746.04,3376.03 1703.68,3386.55 1691.89,3386.55 C1607.66,3386.55 1520.51,3364.17 1451.89,3340.49 C1416.14,3361.61 1154.01,3527.38 1080.54,3889.68 C1030.19,3861 989.8,3809.22 838.96,3775.16 C1349.65,4026.38 1173.77,4243.81 1128.15,4747 L34,4747 C60.21,4670.31 169.39,4362.93 314.71,4114.57 C734.74,3396.68 1021.04,3501.58 962.88,3233.03 C891.15,2901.86 259.91,3101.11 0.7,2992.27 C0.46,2992.19 0.23,2992.1 0,2992 L0,2920.49 C0.44,2918.96 0.7,2918.1 0.7,2918.1 C0.7,2918.1 712.31,2918.1 891.15,3035.27 C785.29,2851.16 -1.9,2918.11 3.47,2825.73 C2.29666667,2825.04333 1.14,2824.30333 0,2823.51 L0,2519.29 C166.73,2740.85 860.64,2675.29 953.08,3025.7 C876.14,2616 201.57,2680.23 0,2458.83 L0,784.83 C105.63,614.43 246.52,478.52 405.37,370.29 C719.14,157.18 1102.71,53.36 1423.62,3.36 L1402.41,3.42 C1409.52333,2.25333333 1416.60667,1.11333333 1423.66,0 L2668.5,0 L2668.5,397.28 C2615.64,350 2396.76,176.24 2047.41,191 C1739.7,204 1429.5,283.46 1206.93,847.14 C1464.93,335.11 1841.6,296 2072.8,310.68 Z M512.82,227.63 C303.44,359.58 120,533.4 0,762.38 L0,0 L992.14,0 C829,56.92 664.32,131.37 512.82,227.63 Z" fill="#7955F7"></path>
    </g>
</svg>
