<svg xmlns="http://www.w3.org/2000/svg" viewBox="0 0 330.06 236.63"><title>make-up-my-mind-logo</title><path d="M213.47,99a39.46,39.46,0,0,0,.27-4.75c0-2.37.82-2.37.82-2.37s3.44,1,2-2.69c-.28-.73-1.1-1.22-1-1.56s3.23-1.23,3.92-3c.27-.72-.43-1.69-.43-1.69s-2.45-3.61-1.61-4.56c1.46-1.66,3.62-1.36,5.91-3.91,1-1.49-1-3.31-1-3.31L215.66,60.7l-.08-1.58s3.48.65,4.36-1.66c-1.89.69-3.05.59-4.15-.14-.7-.46.55-2.25.55-2.25s2.16-4.33,0-14.24c-.79-3.59-.54-4.82.28-10.38C218.16,20,212.6,12.18,202.49,8a1.84,1.84,0,0,0,0-.23C191.59-7,165.4,5.06,157.89,8.94a45.81,45.81,0,0,0-15.26,9.89,3,3,0,0,1-2.15,1c-3.07-11.67-28.6-9.61-29.64,17.19-1.1,6.08-.4,13.44,4.4,21.67C113.69,80.44,131.42,84.42,140.53,85c-3.18.65-6.6,2.18-8.19,5.65-5,11,11.12,13.15,8.38,3.08,2.14,9.48-12.58,7.12-6.89-3.08,2-3.61,9.49-4.87,17.62-3.76-5.29,13.48-15.31,32.58-22,46.26-2.42,5,1.2,3.75,3.77,2.21,16.3-9.74,26.41,2.8,35.67,10.65,12.56,10.65,17.93,12.56,27.87,16.66,6.91,2.85,7.23.54,3.71-2.84-21.24-20.43-21.06-48.07-15.2-59.78.56-1.12,2.67-.64,2.89-.86,5.75,2.05,13.26,4.07,20.5,4.07C209.68,103.31,213.16,102.44,213.47,99ZM137.1,18.34c-2.81-1.59-9.94-5.6-16.39.77a35.61,35.61,0,0,0-8.43,12.75C116.59,12.57,133.25,11,137.1,18.34ZM147,84.65l-.24,0,.11,0ZM123.29,56s-5.44-2.22-5.44-13.53a24.21,24.21,0,0,1,7.28-17.56C112.52,44,123.29,56,123.29,56Zm20,26.89c-14.08-1.72-18.17-7.92-19.58-13.4C129.22,74.91,136.19,79.34,143.32,82.91ZM114.5,39.26c-2.29,10.47,4.65,18.64,4.65,18.64s-4.09-3.76-5.23-8.16S114.5,39.26,114.5,39.26Zm1,19.79a54,54,0,0,0,6.4,8.52c.31.34.63.67.95,1a15.65,15.65,0,0,0,7.19,12C116.73,75.25,116.09,65.09,115.47,59Zm41,20.08c-6.65-1.87-14.86-5-25.58-16C126.63,58.85,125,52.81,128,51.43c-4.43,3.08,8.48,21,28.43,27.7,2.13.6,4.1,1.07,5.94,1.61A49.83,49.83,0,0,1,156.44,79.13ZM143.23,60.75C132.31,57,132.77,47.19,132.77,47.19s-.21,8.66,11.59,12.61c15,5,21.32,11.1,21.32,11.1S158.83,66.08,143.23,60.75Zm-4.19-31c3.16-1,10.61-2.12,20.53,0S173.34,37,173.34,37C167.83,31.54,151.09,27.65,139,29.73Zm-.83-1.13c3.91-3.78,13.38-9.37,26.62-7.5s19.19,14,19.19,14C173.74,19.42,151.68,18.62,138.21,28.59ZM175.29,5a70,70,0,0,0-9.63,1.49C176,3.32,191.66.09,199,6.8,192.42,4.83,184.35,4.17,175.29,5Z" transform="translate(-3.45 -0.64)" fill="#fff" fill-rule="evenodd"/><path d="M136.9,206.53v13c0,7.94-4.48,11.93-11.44,11.93s-11.32-4-11.32-11.7V206.53a2.34,2.34,0,0,1,4.67,0v13c0,4.94,2.55,7.56,6.73,7.56s6.69-2.47,6.69-7.37V206.53a2.34,2.34,0,0,1,4.67,0Zm-39,13.87a2.15,2.15,0,0,1-2.17,2.2H83.17a5.6,5.6,0,0,0,5.78,5.09,7.21,7.21,0,0,0,4.75-1.75,1.71,1.71,0,0,1,1.18-.42,1.81,1.81,0,0,1,1.82,1.86,2,2,0,0,1-.61,1.41,10.3,10.3,0,0,1-7.22,2.66A10,10,0,0,1,78.57,221V221c0-5.74,4.07-10.45,9.8-10.45C94.76,210.52,97.91,215.77,97.91,220.4Zm-4.48-.84c-.3-3-2.05-5.28-5.09-5.28-2.81,0-4.79,2.17-5.21,5.28Zm240.08-14.21v23.56a2.3,2.3,0,0,1-4.6,0v-1.25a8,8,0,0,1-6.84,3.76c-4.71,0-9.31-3.76-9.31-10.41v-.08c0-6.65,4.52-10.41,9.31-10.41a8.21,8.21,0,0,1,6.84,3.53v-8.7a2.3,2.3,0,0,1,4.6,0ZM329,220.93c0-3.88-2.74-6.42-5.81-6.42s-5.78,2.43-5.78,6.42V221c0,3.88,2.66,6.42,5.78,6.42S329,224.85,329,221ZM27.23,204.25h-.49a2.35,2.35,0,0,0-2.13,1.22l-8.09,12.65L8.46,205.51a2.46,2.46,0,0,0-2.17-1.25H5.8a2.34,2.34,0,0,0-2.36,2.36v22.3a2.24,2.24,0,0,0,2.28,2.28A2.27,2.27,0,0,0,8,228.91V213l6.46,9.69a2.18,2.18,0,0,0,3.91,0l6.5-9.76v16a2.35,2.35,0,0,0,2.32,2.32,2.31,2.31,0,0,0,2.36-2.32V206.61A2.34,2.34,0,0,0,27.23,204.25Zm23.3,8.66a8.32,8.32,0,0,1,2.17,6.19V229a2.19,2.19,0,0,1-2.24,2.2,2.08,2.08,0,0,1-2.24-1.94v-.76a8.15,8.15,0,0,1-6.54,2.93c-3.76,0-7.1-2.17-7.1-6.19v-.08c0-4.33,3.38-6.46,8.28-6.46a16.78,16.78,0,0,1,5.4.84V219c0-2.85-1.75-4.37-5-4.37a11.93,11.93,0,0,0-4.45.8,2.57,2.57,0,0,1-.72.11,1.91,1.91,0,0,1-1.94-1.9,2,2,0,0,1,1.25-1.82,17.2,17.2,0,0,1,6.46-1.18C46.88,210.67,49.12,211.47,50.53,212.92Zm-2.2,9.5a12.74,12.74,0,0,0-4.56-.8c-3,0-4.71,1.25-4.71,3.34V225c0,1.94,1.71,3,3.91,3,3,0,5.36-1.75,5.36-4.29Zm20.75-2.77,5.32-4.9a2.61,2.61,0,0,0,1-1.94,2,2,0,0,0-2-2.09,2.7,2.7,0,0,0-2,1l-8.62,8.47V205.35a2.29,2.29,0,0,0-2.32-2.28,2.26,2.26,0,0,0-2.28,2.28v23.56a2.3,2.3,0,0,0,4.6,0v-3.5l3-2.89,5.74,7.64a2.28,2.28,0,0,0,2,1,2.08,2.08,0,0,0,2.17-2.09,2.44,2.44,0,0,0-.61-1.52Zm232-9.12a7.27,7.27,0,0,0-6.27,3.5v-1a2.3,2.3,0,0,0-2.32-2.32,2.27,2.27,0,0,0-2.28,2.32v15.88a2.3,2.3,0,0,0,4.6,0v-9.23c0-3.12,1.86-5,4.52-5s4.29,1.79,4.29,4.9v9.31a2.27,2.27,0,0,0,2.32,2.28,2.24,2.24,0,0,0,2.28-2.28V218.2C308.24,213.56,305.62,210.52,301.09,210.52ZM163.53,220.93V221c0,6.65-4.56,10.41-9.31,10.41a8.19,8.19,0,0,1-6.84-3.53V235a2.3,2.3,0,0,1-4.6,0V213a2.27,2.27,0,0,1,2.28-2.32,2.3,2.3,0,0,1,2.32,2.32v1.25a8,8,0,0,1,6.84-3.76C158.94,210.52,163.53,214.24,163.53,220.93Zm-4.67,0c0-3.88-2.62-6.42-5.74-6.42s-5.85,2.58-5.85,6.42V221c0,3.84,2.74,6.42,5.85,6.42s5.74-2.47,5.74-6.42Zm111.83-16.68h-.49a2.35,2.35,0,0,0-2.13,1.22L260,218.12l-8.05-12.61a2.46,2.46,0,0,0-2.17-1.25h-.49a2.34,2.34,0,0,0-2.36,2.36v22.3a2.24,2.24,0,0,0,2.28,2.28,2.27,2.27,0,0,0,2.32-2.28V213l6.46,9.69a2.18,2.18,0,0,0,3.91,0l6.5-9.76v16a2.35,2.35,0,0,0,2.32,2.32,2.31,2.31,0,0,0,2.36-2.32V206.61A2.34,2.34,0,0,0,270.69,204.25Zm-42.29,6.46a2.36,2.36,0,0,0-2.2,1.75l-5,13.34-5.4-13.34a2.31,2.31,0,0,0-2.24-1.75,2.21,2.21,0,0,0-2.28,2.24,3.12,3.12,0,0,0,.27,1.1L219,230.7l-.15.42c-.76,1.56-1.48,2.13-2.85,2.13a5.19,5.19,0,0,1-1.6-.27,2.34,2.34,0,0,0-.84-.15,1.85,1.85,0,0,0-1.86,1.9,2,2,0,0,0,1.44,1.9,8.12,8.12,0,0,0,3.19.57c3.23,0,5.05-1.52,6.76-5.62L230.42,214a4.11,4.11,0,0,0,.19-1.1A2.17,2.17,0,0,0,228.4,210.71Zm53.5,0a2.27,2.27,0,0,0-2.28,2.32v15.88a2.3,2.3,0,0,0,4.6,0V213A2.3,2.3,0,0,0,281.91,210.71ZM204,204.25h-.49a2.35,2.35,0,0,0-2.13,1.22l-8.09,12.65-8.06-12.61a2.46,2.46,0,0,0-2.17-1.25h-.49a2.34,2.34,0,0,0-2.36,2.36v22.3a2.24,2.24,0,0,0,2.28,2.28,2.27,2.27,0,0,0,2.32-2.28V213l6.46,9.69a2.18,2.18,0,0,0,3.91,0l6.5-9.76v16a2.35,2.35,0,0,0,2.32,2.32,2.31,2.31,0,0,0,2.36-2.32V206.61A2.34,2.34,0,0,0,204,204.25Zm77.9-1a2.35,2.35,0,0,0-2.62,2.24v.23a2.65,2.65,0,0,0,5.24,0v-.23A2.35,2.35,0,0,0,281.91,203.3Z" transform="translate(-3.45 -0.64)" fill="#fff" fill-rule="evenodd"/></svg>