<?xml version="1.0" encoding="UTF-8"?>
<svg width="42px" height="42px" viewBox="0 0 42 42" version="1.1" xmlns="http://www.w3.org/2000/svg" xmlns:xlink="http://www.w3.org/1999/xlink">
    <title>icon / facebook</title>
    <desc>Created with Sketch.</desc>
    <defs></defs>
    <g id="icon-/-facebook" stroke="none" stroke-width="1" fill="none" fill-rule="evenodd">
        <path d="M20.9960847,41.9488169 C9.41776259,41.9488169 0.0316779661,32.5627323 0.0316779661,20.9844102 C0.0316779661,9.40608802 9.41776259,0.0200033898 20.9960847,0.0200033898 C32.5744069,0.0200033898 41.9604915,9.40608802 41.9604915,20.9844102 C41.9604915,32.5627323 32.5744069,41.9488169 20.9960847,41.9488169 Z M27.8128271,6.45497288 L23.1686949,6.45497288 C20.4127119,6.45497288 17.3472814,7.61410169 17.3472814,11.6090136 C17.3607356,13.0009932 17.3472814,14.3341017 17.3472814,15.8344271 L14.1589831,15.8344271 L14.1589831,20.9079559 L17.4459458,20.9079559 L17.4459458,35.5137763 L23.4859017,35.5137763 L23.4859017,20.8115695 L27.4724847,20.8115695 L27.8331864,15.8201898 L23.3818271,15.8201898 C23.3818271,15.8201898 23.3917932,13.5998136 23.3818271,12.9550068 C23.3818271,11.3763051 25.0245254,11.4667119 25.1233322,11.4667119 C25.9050305,11.4667119 27.4249322,11.4689898 27.8151051,11.4667119 L27.8151051,6.45497288 L27.8128271,6.45497288 Z" id="Combined-Shape" fill="#FFFFFF" fill-rule="nonzero"></path>
    </g>
</svg>
