<?xml version="1.0" encoding="UTF-8"?>
<svg width="42px" height="42px" viewBox="0 0 42 42" version="1.1" xmlns="http://www.w3.org/2000/svg" xmlns:xlink="http://www.w3.org/1999/xlink">
    <!-- Generator: Sketch 49.3 (51167) - http://www.bohemiancoding.com/sketch -->
    <title>icon / twitter</title>
    <desc>Created with Sketch.</desc>
    <defs></defs>
    <g id="icon-/-twitter" stroke="none" stroke-width="1" fill="none" fill-rule="evenodd">
        <path d="M20.9960136,41.9488169 C9.41769141,41.9488169 0.0316067797,32.5627323 0.0316067797,20.9844102 C0.0316067797,9.40608802 9.41769141,0.0200033898 20.9960136,0.0200033898 C32.5743357,0.0200033898 41.9604203,9.40608802 41.9604203,20.9844102 C41.9604203,32.5627323 32.5743357,41.9488169 20.9960136,41.9488169 Z M34.438078,12.6451322 C33.4492271,13.0839254 32.3871254,13.3805593 31.2704237,13.5138915 C32.4101186,12.8314271 33.2832203,11.7499627 33.695461,10.4628407 C32.6128435,11.1058529 31.4280161,11.5585331 30.1924475,11.8012169 C29.186939,10.7294339 27.7531017,10.0602814 26.1667831,10.0602814 C23.1219254,10.0602814 20.652539,12.5286712 20.652539,15.5753085 C20.652539,16.0069831 20.7011593,16.428122 20.7946271,16.832461 C16.2110034,16.6021017 12.1473254,14.4064983 9.42729153,11.0702746 C8.95233559,11.8850746 8.68047458,12.8324237 8.68047458,13.8432 C8.68047458,15.7563356 9.6542339,17.4443085 11.1338441,18.4330881 C10.2579394,18.4059457 9.40125778,18.1695204 8.63541356,17.7435763 L8.63541356,17.8132678 C8.63541356,20.4856068 10.5361627,22.7138847 13.0592949,23.220661 C12.5958,23.3476576 12.1093831,23.4140034 11.6061661,23.4140034 C11.2503763,23.4140034 10.9051932,23.3803322 10.5679831,23.3169051 C11.2698102,25.5072407 13.3065966,27.1016034 15.7192475,27.1466644 C13.831739,28.6262746 11.4534,29.5082746 8.87025763,29.5082746 C8.42534237,29.5082746 7.98562373,29.481722 7.55394915,29.4296847 C9.99500339,30.9949322 12.8933593,31.9086814 16.0079797,31.9086814 C26.1517627,31.9086814 31.6994644,23.5049797 31.6994644,16.2171966 C31.6994644,15.977939 31.6941966,15.740461 31.6826644,15.5038373 C32.7635353,14.7220387 33.6965679,13.7540297 34.438078,12.6451322 Z" id="Combined-Shape" fill="#FFFFFF" fill-rule="nonzero"></path>
    </g>
</svg>